<mxfile host="app.diagrams.net" agent="Mozilla/5.0 (Windows NT 10.0; Win64; x64) AppleWebKit/537.36 (KHTML, like Gecko) Chrome/131.0.0.0 Safari/537.36" version="25.0.1">
  <diagram name="Page-1" id="YFPMDmoUJl4pTeyE9wC-">
    <mxGraphModel dx="1907" dy="1457" grid="1" gridSize="10" guides="1" tooltips="1" connect="1" arrows="1" fold="1" page="1" pageScale="1" pageWidth="850" pageHeight="1100" math="0" shadow="0">
      <root>
        <mxCell id="0" />
        <mxCell id="1" parent="0" />
        <mxCell id="ZFpVJ7xACC-WlkgJ5Gis-22" value="" style="edgeStyle=orthogonalEdgeStyle;rounded=0;orthogonalLoop=1;jettySize=auto;html=1;" edge="1" parent="1" source="ZFpVJ7xACC-WlkgJ5Gis-20" target="ZFpVJ7xACC-WlkgJ5Gis-21">
          <mxGeometry relative="1" as="geometry" />
        </mxCell>
        <mxCell id="ZFpVJ7xACC-WlkgJ5Gis-20" value="start" style="strokeWidth=2;html=1;shape=mxgraph.flowchart.start_1;whiteSpace=wrap;" vertex="1" parent="1">
          <mxGeometry x="1020" y="80" width="100" height="60" as="geometry" />
        </mxCell>
        <mxCell id="ZFpVJ7xACC-WlkgJ5Gis-24" value="" style="edgeStyle=orthogonalEdgeStyle;rounded=0;orthogonalLoop=1;jettySize=auto;html=1;" edge="1" parent="1" source="ZFpVJ7xACC-WlkgJ5Gis-21" target="ZFpVJ7xACC-WlkgJ5Gis-23">
          <mxGeometry relative="1" as="geometry" />
        </mxCell>
        <mxCell id="ZFpVJ7xACC-WlkgJ5Gis-21" value="กำหนดตัวแปร 3 ตัว" style="whiteSpace=wrap;html=1;strokeWidth=2;" vertex="1" parent="1">
          <mxGeometry x="1010" y="220" width="120" height="60" as="geometry" />
        </mxCell>
        <mxCell id="ZFpVJ7xACC-WlkgJ5Gis-26" value="" style="edgeStyle=orthogonalEdgeStyle;rounded=0;orthogonalLoop=1;jettySize=auto;html=1;" edge="1" parent="1" source="ZFpVJ7xACC-WlkgJ5Gis-23" target="ZFpVJ7xACC-WlkgJ5Gis-25">
          <mxGeometry relative="1" as="geometry" />
        </mxCell>
        <mxCell id="ZFpVJ7xACC-WlkgJ5Gis-23" value="รับค่าตัวเลขจากผู็ใช้ 3 ตัว" style="whiteSpace=wrap;html=1;strokeWidth=2;" vertex="1" parent="1">
          <mxGeometry x="1010" y="360" width="120" height="60" as="geometry" />
        </mxCell>
        <mxCell id="ZFpVJ7xACC-WlkgJ5Gis-28" style="edgeStyle=orthogonalEdgeStyle;rounded=0;orthogonalLoop=1;jettySize=auto;html=1;entryX=0.5;entryY=0;entryDx=0;entryDy=0;" edge="1" parent="1" source="ZFpVJ7xACC-WlkgJ5Gis-25" target="ZFpVJ7xACC-WlkgJ5Gis-27">
          <mxGeometry relative="1" as="geometry" />
        </mxCell>
        <mxCell id="ZFpVJ7xACC-WlkgJ5Gis-25" value="แสดงค่าตัวเลขผู้ใช้เรียงลำดับ&lt;div&gt;1st, 2nd, and 3rd&lt;/div&gt;" style="shape=parallelogram;perimeter=parallelogramPerimeter;whiteSpace=wrap;html=1;fixedSize=1;strokeWidth=2;" vertex="1" parent="1">
          <mxGeometry x="960" y="500" width="220" height="120" as="geometry" />
        </mxCell>
        <mxCell id="ZFpVJ7xACC-WlkgJ5Gis-32" value="" style="edgeStyle=orthogonalEdgeStyle;rounded=0;orthogonalLoop=1;jettySize=auto;html=1;" edge="1" parent="1" source="ZFpVJ7xACC-WlkgJ5Gis-27" target="ZFpVJ7xACC-WlkgJ5Gis-31">
          <mxGeometry relative="1" as="geometry" />
        </mxCell>
        <mxCell id="ZFpVJ7xACC-WlkgJ5Gis-35" value="" style="edgeStyle=orthogonalEdgeStyle;rounded=0;orthogonalLoop=1;jettySize=auto;html=1;" edge="1" parent="1" source="ZFpVJ7xACC-WlkgJ5Gis-27" target="ZFpVJ7xACC-WlkgJ5Gis-34">
          <mxGeometry relative="1" as="geometry" />
        </mxCell>
        <mxCell id="ZFpVJ7xACC-WlkgJ5Gis-27" value="num1 &gt;= num2 and num1 &gt;= num3?" style="rhombus;strokeWidth=2;whiteSpace=wrap;" vertex="1" parent="1">
          <mxGeometry x="957.5" y="670" width="225" height="225" as="geometry" />
        </mxCell>
        <mxCell id="ZFpVJ7xACC-WlkgJ5Gis-39" value="" style="edgeStyle=orthogonalEdgeStyle;rounded=0;orthogonalLoop=1;jettySize=auto;html=1;" edge="1" parent="1" source="ZFpVJ7xACC-WlkgJ5Gis-31" target="ZFpVJ7xACC-WlkgJ5Gis-38">
          <mxGeometry relative="1" as="geometry" />
        </mxCell>
        <mxCell id="ZFpVJ7xACC-WlkgJ5Gis-44" value="" style="edgeStyle=orthogonalEdgeStyle;rounded=0;orthogonalLoop=1;jettySize=auto;html=1;" edge="1" parent="1" source="ZFpVJ7xACC-WlkgJ5Gis-31" target="ZFpVJ7xACC-WlkgJ5Gis-43">
          <mxGeometry relative="1" as="geometry" />
        </mxCell>
        <mxCell id="ZFpVJ7xACC-WlkgJ5Gis-31" value="num2 &gt;= num1 and num2 &gt;= num3?" style="rhombus;strokeWidth=2;whiteSpace=wrap;" vertex="1" parent="1">
          <mxGeometry x="1240" y="670" width="225" height="225" as="geometry" />
        </mxCell>
        <mxCell id="ZFpVJ7xACC-WlkgJ5Gis-33" value="ไม่จริง" style="text;html=1;align=center;verticalAlign=middle;whiteSpace=wrap;rounded=0;" vertex="1" parent="1">
          <mxGeometry x="1160" y="750" width="60" height="30" as="geometry" />
        </mxCell>
        <mxCell id="ZFpVJ7xACC-WlkgJ5Gis-34" value="1st Number is the greatest" style="shape=parallelogram;perimeter=parallelogramPerimeter;whiteSpace=wrap;html=1;fixedSize=1;strokeWidth=2;" vertex="1" parent="1">
          <mxGeometry x="1000" y="936" width="140" height="74" as="geometry" />
        </mxCell>
        <mxCell id="ZFpVJ7xACC-WlkgJ5Gis-36" value="จริง" style="text;html=1;align=center;verticalAlign=middle;whiteSpace=wrap;rounded=0;" vertex="1" parent="1">
          <mxGeometry x="1070" y="890" width="60" height="30" as="geometry" />
        </mxCell>
        <mxCell id="ZFpVJ7xACC-WlkgJ5Gis-38" value="2nd Number is the&amp;nbsp;&lt;div&gt;greatest&lt;/div&gt;" style="shape=parallelogram;perimeter=parallelogramPerimeter;whiteSpace=wrap;html=1;fixedSize=1;strokeWidth=2;" vertex="1" parent="1">
          <mxGeometry x="1272.5" y="936" width="160" height="77" as="geometry" />
        </mxCell>
        <mxCell id="ZFpVJ7xACC-WlkgJ5Gis-40" value="จริง" style="text;html=1;align=center;verticalAlign=middle;whiteSpace=wrap;rounded=0;" vertex="1" parent="1">
          <mxGeometry x="1300" y="890" width="60" height="30" as="geometry" />
        </mxCell>
        <mxCell id="ZFpVJ7xACC-WlkgJ5Gis-41" value="ไม่จริง" style="text;html=1;align=center;verticalAlign=middle;whiteSpace=wrap;rounded=0;" vertex="1" parent="1">
          <mxGeometry x="1450" y="750" width="60" height="30" as="geometry" />
        </mxCell>
        <mxCell id="ZFpVJ7xACC-WlkgJ5Gis-45" style="edgeStyle=orthogonalEdgeStyle;rounded=0;orthogonalLoop=1;jettySize=auto;html=1;entryX=1;entryY=0.5;entryDx=0;entryDy=0;entryPerimeter=0;" edge="1" parent="1" source="ZFpVJ7xACC-WlkgJ5Gis-43" target="ZFpVJ7xACC-WlkgJ5Gis-46">
          <mxGeometry relative="1" as="geometry">
            <mxPoint x="1080" y="1100" as="targetPoint" />
            <Array as="points">
              <mxPoint x="1610" y="1100" />
            </Array>
          </mxGeometry>
        </mxCell>
        <mxCell id="ZFpVJ7xACC-WlkgJ5Gis-43" value="3rd Number is the greatest" style="shape=parallelogram;perimeter=parallelogramPerimeter;whiteSpace=wrap;html=1;fixedSize=1;strokeWidth=2;" vertex="1" parent="1">
          <mxGeometry x="1550" y="748.75" width="132.5" height="67.5" as="geometry" />
        </mxCell>
        <mxCell id="ZFpVJ7xACC-WlkgJ5Gis-49" style="edgeStyle=orthogonalEdgeStyle;rounded=0;orthogonalLoop=1;jettySize=auto;html=1;" edge="1" parent="1" source="ZFpVJ7xACC-WlkgJ5Gis-46" target="ZFpVJ7xACC-WlkgJ5Gis-48">
          <mxGeometry relative="1" as="geometry" />
        </mxCell>
        <mxCell id="ZFpVJ7xACC-WlkgJ5Gis-46" value="" style="verticalLabelPosition=bottom;verticalAlign=top;html=1;shape=mxgraph.flowchart.on-page_reference;" vertex="1" parent="1">
          <mxGeometry x="1060" y="1090" width="20" height="20" as="geometry" />
        </mxCell>
        <mxCell id="ZFpVJ7xACC-WlkgJ5Gis-47" style="edgeStyle=orthogonalEdgeStyle;rounded=0;orthogonalLoop=1;jettySize=auto;html=1;entryX=0.5;entryY=0;entryDx=0;entryDy=0;entryPerimeter=0;" edge="1" parent="1" source="ZFpVJ7xACC-WlkgJ5Gis-34" target="ZFpVJ7xACC-WlkgJ5Gis-46">
          <mxGeometry relative="1" as="geometry" />
        </mxCell>
        <mxCell id="ZFpVJ7xACC-WlkgJ5Gis-48" value="end" style="strokeWidth=2;html=1;shape=mxgraph.flowchart.start_1;whiteSpace=wrap;" vertex="1" parent="1">
          <mxGeometry x="1020" y="1150" width="100" height="60" as="geometry" />
        </mxCell>
      </root>
    </mxGraphModel>
  </diagram>
</mxfile>
